<svg xmlns="http://www.w3.org/2000/svg" height="512pt" version="1.1" viewBox="0 0 512 512" width="512pt">
    <path
        d="M 259.22 115.29 C 280.35 132.88 300.20 151.91 319.50 171.49 C 345.87 196.77 371.56 222.78 397.46 248.56 C 398.81 249.95 400.43 251.37 400.41 253.51 C 378.25 244.16 359.53 228.77 340.38 214.58 C 317.37 197.62 290.07 184.45 260.98 184.20 C 236.28 183.58 212.37 192.63 191.58 205.42 C 175.59 215.48 161.35 227.98 146.17 239.16 C 137.96 244.53 129.75 250.18 120.50 253.60 C 120.47 252.21 120.70 250.82 121.91 249.98 C 128.46 243.88 134.56 237.31 141.06 231.15 C 146.94 225.35 152.45 219.17 158.75 213.82 C 160.57 212.28 162.23 210.56 163.76 208.74 C 169.69 201.67 177.15 196.14 183.43 189.42 C 203.06 170.06 222.32 150.31 242.48 131.50 C 247.91 125.94 253.73 120.79 259.22 115.29 Z"
        fill="#ffffff"
        opacity="1.00"
        stroke="#000000"
        stroke-width="5"
        data-index="1"
    ></path>
    <path
        d="M 191.58 205.42 C 212.37 192.63 236.28 183.58 260.98 184.20 C 290.07 184.45 317.37 197.62 340.38 214.58 C 359.53 228.77 378.25 244.16 400.41 253.51 C 404.33 255.30 408.45 256.57 412.61 257.68 C 413.88 257.95 414.22 259.42 414.47 260.49 C 423.34 263.42 432.72 264.90 442.07 264.45 C 441.77 264.70 441.19 265.19 440.89 265.43 C 429.65 270.58 417.38 273.38 405.02 273.70 C 402.78 273.61 401.37 275.62 399.68 276.75 C 387.40 285.82 374.63 294.21 361.74 302.41 C 361.41 302.62 360.74 303.04 360.40 303.25 C 346.49 311.24 331.95 318.14 317.04 324.06 C 303.26 329.82 288.89 334.54 273.97 336.17 C 247.61 338.92 220.53 333.97 196.80 322.16 C 180.15 313.87 164.07 304.46 148.35 294.53 C 138.93 288.28 129.32 282.34 120.01 275.93 C 118.21 274.73 116.39 273.16 114.05 273.48 C 102.14 273.54 90.56 269.76 79.93 264.64 C 93.92 265.08 107.64 260.60 119.73 253.85 L 120.50 253.60 C 129.75 250.18 137.96 244.53 146.17 239.16 C 161.35 227.98 175.59 215.48 191.58 205.42 Z"
        fill="#000000"
    ></path>
    <path
        d="M 227.09 203.81 C 239.66 199.64 252.84 197.56 266.02 196.59 C 276.41 196.27 287.02 196.02 297.09 199.06 L 296.29 197.86 C 299.03 200.04 302.73 199.81 305.90 200.94 C 322.05 208.20 336.58 218.62 350.38 229.61 C 362.51 238.88 375.15 247.61 388.84 254.44 C 392.23 256.19 395.88 257.38 399.22 259.26 C 401.26 259.14 403.11 259.99 404.96 260.72 C 400.53 261.57 397.27 258.20 393.16 257.39 C 383.25 254.08 373.77 249.52 364.81 244.17 C 349.27 234.13 334.18 223.14 317.12 215.75 C 294.76 202.40 267.28 198.39 241.91 203.90 C 230.03 205.83 218.55 209.70 207.50 214.40 C 201.44 216.97 196.11 220.99 190.01 223.46 C 190.94 222.59 191.93 221.77 192.96 221.01 C 203.60 213.97 214.89 207.68 227.09 203.81 Z"
        fill="#ffffff"
    ></path>
    <path
        d="M 271.98 224.53 C 280.16 225.99 288.21 228.22 296.12 230.77 C 302.10 232.74 308.18 234.53 313.93 237.13 C 314.93 237.49 315.93 237.86 316.94 238.23 C 319.99 239.45 322.97 240.83 325.96 242.21 C 327.60 242.73 328.99 243.76 330.26 244.91 C 330.52 246.70 331.05 248.44 331.71 250.12 C 332.86 252.29 333.57 254.64 333.82 257.08 C 338.42 268.71 336.47 281.85 332.52 293.39 C 328.88 303.04 323.47 312.00 316.82 319.87 C 314.43 322.46 310.78 322.98 307.54 323.79 C 288.54 328.55 268.85 331.83 249.23 329.87 C 234.38 328.38 219.66 324.79 206.01 318.79 C 190.30 305.56 181.72 284.45 183.27 264.00 C 183.13 257.19 185.62 250.80 187.83 244.48 C 188.29 243.10 189.78 242.66 190.99 242.16 C 196.04 239.49 201.08 236.59 206.67 235.19 C 206.40 235.56 205.87 236.29 205.60 236.66 C 205.21 238.49 204.54 240.24 203.82 241.96 C 199.67 253.75 197.58 266.71 200.98 278.97 C 204.77 294.46 215.54 307.99 229.64 315.37 C 252.25 327.18 282.62 321.83 299.30 302.35 C 308.09 292.09 312.51 278.44 312.25 265.00 C 311.73 257.24 310.47 248.95 305.21 242.86 C 306.19 247.32 308.31 251.45 308.99 255.99 C 311.09 268.75 309.32 282.44 302.49 293.58 C 297.03 302.43 289.19 310.16 279.53 314.27 C 264.03 321.37 245.15 321.19 230.13 312.92 C 216.74 305.76 206.59 292.76 203.17 277.93 C 199.94 265.51 202.09 252.35 206.83 240.61 C 208.10 238.08 207.82 234.07 211.04 233.11 C 215.71 231.81 220.34 229.66 225.32 230.35 C 219.37 234.12 216.41 241.01 215.71 247.79 C 213.71 256.05 212.56 264.71 214.55 273.10 C 217.36 287.75 228.99 299.81 243.00 304.42 C 249.39 306.81 256.36 306.86 263.06 306.16 C 277.08 304.15 289.50 294.28 295.02 281.30 C 299.37 271.45 299.58 259.99 296.20 249.83 C 293.43 240.14 286.51 232.02 278.12 226.63 C 276.09 225.86 274.04 225.18 271.98 224.53 Z"
        fill="#ffffff"
    ></path>
    <path
        d="M 219.16 249.08 C 218.46 240.62 225.40 233.51 232.89 230.83 C 243.81 228.48 254.97 240.32 251.74 251.10 C 249.62 258.64 242.30 265.55 234.03 264.38 L 233.72 264.32 C 226.75 262.34 219.54 256.89 219.16 249.08 Z"
        fill="#ffffff"
    ></path>
    <path
        d="M 260.49 241.96 C 262.27 236.12 270.24 234.75 274.83 238.09 C 276.80 239.38 279.21 241.53 278.08 244.16 C 274.25 250.73 262.45 249.43 260.49 241.96 Z"
        fill="#ffffff"
    ></path>
    <path
        d="M 134.08 272.94 C 149.10 263.82 164.31 254.99 179.92 246.92 C 179.41 250.87 178.64 254.78 177.69 258.65 C 176.59 261.45 177.00 265.38 173.98 266.96 C 164.98 272.61 155.82 278.04 146.40 282.98 C 142.22 279.72 138.31 276.14 134.08 272.94 Z"
        fill="#ffffff"
    ></path>
    <path
        d="M 337.69 246.36 C 355.67 254.82 373.70 263.19 392.05 270.82 C 386.09 274.65 381.21 279.87 375.42 283.94 C 365.09 275.39 352.10 271.16 341.06 263.70 C 340.79 266.54 340.52 269.38 340.13 272.21 C 340.23 263.55 340.25 254.71 337.69 246.36 Z"
        fill="#ffffff"
    ></path>
    <path
        d="M 285.80 254.21 C 286.33 254.37 287.38 254.69 287.91 254.85 C 291.55 267.64 286.45 282.94 274.80 289.82 C 274.11 290.34 273.35 290.62 272.53 290.65 C 271.87 290.57 270.56 290.42 269.91 290.35 C 276.36 286.70 281.44 280.95 284.27 274.09 C 285.08 270.76 285.82 267.42 286.26 264.02 C 286.50 260.74 285.98 257.47 285.80 254.21 Z"
        fill="#ffffff"
    ></path>
    <path
        d="M 173.98 266.96 C 177.00 265.38 176.59 261.45 177.69 258.65 C 175.73 275.74 179.44 293.65 189.21 307.93 C 190.93 310.59 193.39 312.72 194.91 315.53 C 191.77 313.37 188.23 311.93 184.85 310.24 C 171.11 302.55 158.55 292.94 146.40 282.98 C 155.82 278.04 164.98 272.61 173.98 266.96 Z"
        fill="#ffffff"
    ></path>
    <path
        d="M 278.60 261.47 C 279.45 261.53 280.31 261.60 281.18 261.67 C 281.28 262.20 281.47 263.27 281.57 263.80 C 280.61 264.07 279.64 264.32 278.67 264.54 C 278.64 263.51 278.61 262.49 278.60 261.47 Z"
        fill="#ffffff"
    ></path>
    <path
        d="M 224.21 262.44 L 225.04 261.85 C 225.47 262.82 225.91 263.80 226.35 264.78 C 226.46 266.24 226.59 267.70 226.73 269.16 C 228.32 273.65 229.67 278.41 232.91 282.05 C 234.34 283.92 236.69 285.40 236.70 288.01 C 228.96 282.00 225.14 271.94 224.21 262.44 Z"
        fill="#ffffff"
    ></path>
    <path
        d="M 341.06 263.70 C 352.10 271.16 365.09 275.39 375.42 283.94 C 360.63 294.87 345.80 305.88 329.76 314.94 C 326.36 316.79 322.97 318.73 319.31 320.01 C 331.15 306.88 338.68 289.85 340.13 272.21 C 340.52 269.38 340.79 266.54 341.06 263.70 Z"
        fill="#ffffff"
    ></path>
    <path
        d="M 121.15 287.85 C 136.60 300.72 152.86 312.63 169.94 323.26 C 182.09 330.89 194.77 337.84 208.27 342.77 C 250.75 358.06 299.31 353.02 338.94 331.94 C 356.23 323.32 372.57 312.72 387.43 300.35 C 392.52 296.23 397.27 291.67 402.74 288.02 C 393.39 296.58 384.65 305.80 375.04 314.09 C 365.15 323.25 354.82 332.08 343.22 339.04 C 329.61 347.22 314.66 353.35 299.00 356.22 C 284.17 359.07 269.02 359.76 253.95 359.42 C 237.31 359.17 220.57 356.75 204.91 350.99 C 186.27 343.83 169.45 332.54 154.55 319.35 C 143.17 309.13 131.52 299.14 121.15 287.85 Z"
        fill="#000000"
        opacity="1.00"
        stroke="#000000"
        stroke-width="0.25"
        data-index="18"
    ></path>
    <path
        d="M 136.73 290.64 C 138.95 290.79 140.39 292.69 142.09 293.87 C 145.56 296.41 148.93 299.19 152.86 300.99 C 151.62 297.87 147.08 297.84 146.08 294.40 L 148.35 294.53 C 164.07 304.46 180.15 313.87 196.80 322.16 C 220.53 333.97 247.61 338.92 273.97 336.17 C 288.89 334.54 303.26 329.82 317.04 324.06 C 331.95 318.14 346.49 311.24 360.40 303.25 C 360.94 306.76 356.38 307.79 354.24 309.68 C 354.74 309.78 355.73 310.00 356.23 310.10 C 351.39 314.42 344.91 316.69 340.71 321.69 C 346.11 319.36 350.99 316.01 356.31 313.50 C 355.60 314.75 354.90 316.00 354.13 317.22 C 350.50 320.90 345.93 323.50 342.31 327.19 C 341.20 328.42 339.68 329.06 338.18 329.66 C 338.76 329.69 339.93 329.74 340.51 329.76 C 340.12 330.31 339.33 331.40 338.94 331.94 C 299.31 353.02 250.75 358.06 208.27 342.77 C 194.77 337.84 182.09 330.89 169.94 323.26 C 169.82 322.62 169.59 321.32 169.47 320.68 C 166.62 317.41 162.84 315.23 159.33 312.78 C 155.37 310.08 152.27 306.36 148.51 303.42 C 146.09 301.55 143.90 299.40 142.00 297.00 C 140.33 294.80 137.78 293.28 136.73 290.64 Z"
        fill="#ffffff"
        stroke="#000000"
        stroke-width="5"
    ></path>
    <path
        d="M 360.40 303.25 C 360.74 303.04 361.41 302.62 361.74 302.41 C 362.67 302.98 363.61 303.56 364.55 304.14 C 363.70 305.41 362.87 306.70 362.10 308.01 C 364.80 306.83 367.04 304.75 369.94 303.99 C 367.73 307.06 364.75 309.42 361.67 311.56 C 359.05 313.32 357.07 315.95 354.13 317.22 C 354.90 316.00 355.60 314.75 356.31 313.50 C 350.99 316.01 346.11 319.36 340.71 321.69 C 344.91 316.69 351.39 314.42 356.23 310.10 C 355.73 310.00 354.74 309.78 354.24 309.68 C 356.38 307.79 360.94 306.76 360.40 303.25 Z"
        fill="#ffffff"
        stroke="#000000"
        stroke-width="5"
    ></path>
    <path
        d="M 216.10 360.99 C 219.24 360.11 222.37 361.50 225.49 361.83 C 230.34 362.41 235.01 363.99 239.88 364.42 C 252.89 366.06 266.12 366.04 279.14 364.48 C 285.99 364.05 292.55 361.18 299.47 361.58 C 297.49 365.11 294.19 367.55 291.44 370.43 C 281.40 381.23 270.72 391.42 260.14 401.68 C 255.16 398.87 251.67 394.25 247.45 390.51 C 237.81 379.83 226.10 371.30 216.10 360.99 Z"
        fill="#ffffff"
        stroke="#000000"
        stroke-width="5"
    ></path>
</svg>
